<?xml version="1.0" encoding="UTF-8"?>
<svg width="197px" height="112px" viewBox="0 0 197 112" version="1.1" xmlns="http://www.w3.org/2000/svg" xmlns:xlink="http://www.w3.org/1999/xlink">
    <!-- Generator: Sketch 42 (36781) - http://www.bohemiancoding.com/sketch -->
    <title>treez</title>
    <desc>Created with Sketch.</desc>
    <defs>
        <path d="M0.925,9.432 L11.408,9.432 L11.408,68.056 L20.485,68.056 L20.485,9.432 L30.993,9.432 L30.993,0.299 L0.925,0.299 L0.925,9.432 Z M66.464,20.191 C66.464,28.002 64.416,33.708 58.622,37.135 L68.406,68.082 L58.817,68.082 L50.366,39.144 L44.946,39.144 L44.946,68.056 L35.869,68.056 L35.869,0.299 L50.496,0.299 C61.223,0.299 66.464,7.057 66.464,20.191 Z M50.09,30.568 L50.106,30.568 C56.412,30.568 57.42,26.854 57.42,20 C57.42,13.146 56.347,9.432 49.683,9.432 L44.946,9.432 L44.946,30.568 L50.09,30.568 Z M74.631,68.056 L101.692,68.056 L101.692,58.366 L83.733,58.366 L83.733,38.465 L99.384,38.465 L99.384,29.333 L83.733,29.333 L83.733,9.432 L101.692,9.432 L101.692,0.299 L74.631,0.299 L74.631,68.056 Z M108.437,68.056 L135.465,68.056 L135.465,58.366 L117.506,58.366 L117.506,38.465 L133.157,38.465 L133.157,29.333 L117.506,29.333 L117.506,9.432 L135.465,9.432 L135.465,0.299 L108.437,0.299 L108.437,68.056 Z M155.895,60.445 L162.054,60.454 L159.876,66.49 L159.178,68.447 L142.389,68.447 C141.943,68.446 141.526,68.209 141.275,67.814 C141.025,67.419 140.973,66.917 141.137,66.473 L143.031,61.358 L147.386,49.512 L162.583,8.319 L142.641,8.319 C141.896,8.319 141.292,7.672 141.292,6.875 L141.292,1.743 C141.292,1.359 141.435,0.99 141.69,0.719 C141.944,0.448 142.289,0.297 142.649,0.299 L171.253,0.299 C171.812,0.282 172.322,0.635 172.537,1.186 L172.716,1.673 C172.837,2.009 172.837,2.381 172.716,2.717 L168.88,13.155 L155.488,49.512 L151.425,60.445 L155.895,60.445 Z" id="path-1"></path>
        <path d="M12.814,53.73 L12.822,53.73 C12.829,53.758 12.834,53.788 12.838,53.817 C12.84,53.854 12.84,53.892 12.838,53.93 L12.838,77.414 C12.829,78.198 12.238,78.831 11.505,78.841 L6.711,78.841 C6.353,78.845 6.008,78.698 5.752,78.43 C5.496,78.163 5.35,77.797 5.345,77.414 L5.345,65.524 L0.592,65.524 L1.282,63.576 L3.46,57.531 L5.053,53.617 C5.253,53.063 5.75,52.698 6.304,52.695 L11.587,52.695 C11.668,52.687 11.749,52.687 11.83,52.695 L11.944,52.695 C12.014,52.717 12.082,52.746 12.147,52.782 L12.204,52.782 C12.291,52.831 12.372,52.889 12.448,52.956 C12.514,53.019 12.574,53.089 12.627,53.164 C12.674,53.248 12.715,53.335 12.749,53.425 C12.78,53.524 12.802,53.626 12.814,53.73 Z M36.567,63.585 L36.543,63.628 C36.706,64.072 36.655,64.574 36.404,64.969 C36.154,65.364 35.737,65.601 35.291,65.602 L17.194,65.602 C16.449,65.602 15.845,64.956 15.845,64.159 L15.845,59.027 C15.845,58.229 16.449,57.583 17.194,57.583 L26.295,57.583 L22.232,46.65 L14.106,24.583 L14.065,24.47 L9.531,12.137 L13.366,1.699 C13.491,1.358 13.491,0.979 13.366,0.638 L18.648,14.842 L18.648,14.946 L30.269,46.606 L34.673,58.453 L36.567,63.585 Z" id="path-3"></path>
    </defs>
    <g id="MobileView" stroke="none" stroke-width="1" fill="none" fill-rule="evenodd">
        <g id="Artboard-2" transform="translate(-5.000000, -52.000000)">
            <g id="treez" transform="translate(5.000000, 52.000000)">
                <g id="Group-3" transform="translate(0.000000, 30.000000)">
                    <mask id="mask-2" fill="white">
                        <use xlink:href="#path-1"></use>
                    </mask>
                    <g id="Clip-2"></g>
                    <polygon id="Fill-1" fill="#FFFFFF" mask="url(#mask-2)" points="0.88 68.48 172.84 68.48 172.84 0.2 0.88 0.2"></polygon>
                </g>
                <g id="Group-6" transform="translate(160.000000, 33.000000)">
                    <mask id="mask-4" fill="white">
                        <use xlink:href="#path-3"></use>
                    </mask>
                    <g id="Clip-5"></g>
                    <polygon id="Fill-4" fill="#FFFFFF" mask="url(#mask-4)" points="0.48 78.92 36.72 78.92 36.72 0.56 0.48 0.56"></polygon>
                </g>
                <path d="M3.94927744,2.94927744 L3.94927744,9.23484156 L8.31314043,9.23484156 C9.40744794,9.21704795 10.2303904,8.87897428 10.7819926,8.22061041 C11.3069043,7.58004016 11.5693562,6.86830612 11.5693562,6.08538693 C11.5693562,5.43591987 11.4625961,4.88877432 11.2490727,4.44393387 C11.0266525,4.04357747 10.7152688,3.72774549 10.3149124,3.49642845 C9.70992943,3.11386567 9.00709207,2.93148382 8.20637926,2.94927744 L3.94927744,2.94927744 Z M1,19.6173658 L1,0.160141761 L8.04623749,0.160141761 C8.81136307,0.160141761 9.54978714,0.231315166 10.2615319,0.37366411 C10.9732766,0.560497098 11.6939073,0.943054147 12.4234456,1.52134673 C13.0373255,1.95729037 13.5355393,2.58005766 13.9181021,3.38966728 C14.3184585,4.17258647 14.5186337,5.09784073 14.5186337,6.16545781 C14.5186337,7.60674086 14.0115232,8.91900051 12.9972869,10.1022761 C11.9563603,11.3478294 10.4350288,11.98839 8.43324675,12.0239772 L3.94927744,12.0239772 L3.94927744,19.6173658 L1,19.6173658 Z M20.9066885,9.88875376 C20.9066885,7.62896427 20.9734136,6.11652943 21.1068657,5.35140385 C21.2492147,4.58627828 21.4671832,3.96795933 21.7607779,3.49642845 C22.2323088,2.59785074 22.9885262,1.79714995 24.0294529,1.09430204 C25.0525859,0.382557315 26.3292589,0.017793618 27.85951,0 C29.4075548,0.017793618 30.6975727,0.382557315 31.7296026,1.09430204 C32.7527356,1.79714995 33.4911597,2.59785074 33.9448969,3.49642845 C34.2740789,3.96795933 34.5009441,4.58627828 34.6254994,5.35140385 C34.7411579,6.11652943 34.7989863,7.62896427 34.7989863,9.88875376 C34.7989863,12.112956 34.7411579,13.6164942 34.6254994,14.3994134 C34.5009441,15.1823326 34.2740789,15.8095482 33.9448969,16.2810791 C33.4911597,17.1796568 32.7527356,17.9714609 31.7296026,18.6565152 C30.6975727,19.3682599 29.4075548,19.7419203 27.85951,19.7775075 C26.3292589,19.7419203 25.0525859,19.3682599 24.0294529,18.6565152 C22.9885262,17.9714609 22.2323088,17.1796568 21.7607779,16.2810791 C21.618429,15.9874844 21.4894272,15.7072391 21.3737687,15.4403348 C21.267007,15.1645337 21.1780402,14.8175634 21.1068657,14.3994134 C20.9734136,13.6164942 20.9066885,12.112956 20.9066885,9.88875376 Z M23.8693111,9.88875376 C23.8693111,11.8015677 23.9404845,13.096034 24.0828335,13.7721915 C24.2073888,14.4483489 24.460944,14.9954945 24.8435068,15.4136445 C25.1548951,15.8140009 25.5641422,16.1387296 26.0712603,16.3878402 C26.5694816,16.6814349 27.1655589,16.8282301 27.85951,16.8282301 C28.5623579,16.8282301 29.1717802,16.6814349 29.6877951,16.3878402 C30.1771196,16.1387296 30.5685733,15.8140009 30.862168,15.4136445 C31.2447308,14.9954945 31.5071827,14.4483489 31.6495317,13.7721915 C31.7829838,13.096034 31.8497089,11.8015677 31.8497089,9.88875376 C31.8497089,7.97593982 31.7829838,6.67257685 31.6495317,5.97862575 C31.5071827,5.32026189 31.2447308,4.78201302 30.862168,4.36386299 C30.5685733,3.96350659 30.1771196,3.62988126 29.6877951,3.36297699 C29.1717802,3.10496952 28.5623579,2.96707105 27.85951,2.94927744 C27.1655589,2.96707105 26.5694816,3.10496952 26.0712603,3.36297699 C25.5641422,3.62988126 25.1548951,3.96350659 24.8435068,4.36386299 C24.460944,4.78201302 24.2073888,5.32026189 24.0828335,5.97862575 C23.9404845,6.67257685 23.8693111,7.97593982 23.8693111,9.88875376 Z M45.2306206,19.6173658 L47.6861277,19.6173658 L51.4094236,5.5916165 L51.4628042,5.5916165 L55.172755,19.6173658 L57.6416071,19.6173658 L62.4992406,0.160141761 L59.3898214,0.160141761 L56.3204376,13.9857138 L56.267057,13.9857138 L52.5037256,0.160141761 L50.3685022,0.160141761 L46.5918256,13.9857138 L46.538445,13.9857138 L43.4824064,0.160141761 L40.3729872,0.160141761 L45.2306206,19.6173658 Z M69.2342692,19.6173658 L81.6586009,19.6173658 L81.6586009,16.8282301 L72.1835467,16.8282301 L72.1835467,11.1165073 L80.2707056,11.1165073 L80.2707056,8.50085849 L72.1835467,8.50085849 L72.1835467,2.94927744 L81.6586009,2.94927744 L81.6586009,0.160141761 L69.2342692,0.160141761 L69.2342692,19.6173658 Z M91.7566065,2.78913567 L91.7566065,8.68769055 L96.2138856,8.68769055 C97.3170899,8.66989693 98.1444807,8.34961661 98.6960829,7.72683998 C99.2387882,7.14854739 99.5101368,6.43681335 99.5101368,5.5916165 C99.4923432,4.57738027 99.1676145,3.84340454 98.5359411,3.38966728 C98.0377198,2.98931087 97.3170891,2.78913567 96.3740273,2.78913567 L91.7566065,2.78913567 Z M88.8073291,19.6173658 L88.8073291,0.160141761 L96.4007176,0.160141761 C98.0199368,0.160141761 99.3410932,0.587182187 100.364226,1.44127585 C101.600883,2.41102803 102.245892,3.79446108 102.299272,5.5916165 C102.263685,8.23396877 101.009254,10.0310972 98.5359411,10.9830558 L103.046601,19.6173658 L99.5368271,19.6173658 L95.5199379,11.3033393 L91.7566065,11.3033393 L91.7566065,19.6173658 L88.8073291,19.6173658 Z M109.848355,19.6173658 L122.272687,19.6173658 L122.272687,16.8282301 L112.797633,16.8282301 L112.797633,11.1165073 L120.884791,11.1165073 L120.884791,8.50085849 L112.797633,8.50085849 L112.797633,2.94927744 L122.272687,2.94927744 L122.272687,0.160141761 L109.848355,0.160141761 L109.848355,19.6173658 Z M129.421415,19.6173658 L129.421415,0.160141761 L136.22744,0.160141761 C138.860895,0.177935379 140.835957,1.27222647 142.152685,3.44304787 C142.624216,4.1725862 142.922254,4.9377003 143.04681,5.73841311 C143.144675,6.53912592 143.193606,7.92255897 143.193606,9.88875376 C143.193606,11.9795039 143.117985,13.4385587 142.966739,14.2659619 C142.895564,14.6841119 142.788804,15.0577723 142.646455,15.3869542 C142.49521,15.7072393 142.312828,16.0408647 142.099304,16.3878402 C141.529909,17.3042116 140.738105,18.060429 139.723868,18.6565152 C138.718529,19.2970854 137.486339,19.6173658 136.027263,19.6173658 L129.421415,19.6173658 Z M132.370692,2.94927744 L132.370692,16.8282301 L135.893811,16.8282301 C137.548618,16.8282301 138.749669,16.2632912 139.497001,15.1333964 C139.826183,14.7152464 140.035255,14.1858942 140.124223,13.545324 C140.204294,12.9136505 140.244329,11.7303927 140.244329,9.99551493 C140.244329,8.30512122 140.204294,7.09517335 140.124223,6.36563501 C140.017461,5.63609667 139.763906,5.04446775 139.363549,4.59073049 C138.545043,3.46083575 137.388475,2.9136902 135.893811,2.94927744 L132.370692,2.94927744 Z M161.934997,19.6173658 L161.934997,0.160141761 L169.475005,0.160141761 C171.387819,0.177935379 172.824632,0.658355859 173.785487,1.60141761 C174.755239,2.55337617 175.240108,3.81225576 175.240108,5.37809415 C175.257902,6.17880696 175.066623,6.94392105 174.666267,7.67345939 C174.46164,8.02043494 174.16805,8.34961194 173.785487,8.66100025 C173.402924,8.99018219 172.9314,9.28822082 172.370902,9.55512509 L172.370902,9.60850567 C173.429622,9.88430675 174.230323,10.440349 174.773028,11.276649 C175.280146,12.1396395 175.533701,13.0782388 175.533701,14.092475 C175.515908,15.7739719 174.991004,17.1040249 173.958974,18.0826739 C172.935841,19.1058069 171.659168,19.6173658 170.128917,19.6173658 L161.934997,19.6173658 Z M169.421624,10.9830558 L164.884274,10.9830558 L164.884274,16.8282301 L169.421624,16.8282301 C170.515932,16.8104365 171.316632,16.5123978 171.823751,15.9341052 C172.330869,15.3647095 172.584424,14.6885621 172.584424,13.9056429 C172.584424,13.1049301 172.330869,12.4198861 171.823751,11.8504903 C171.316632,11.2899914 170.515932,11.0008494 169.421624,10.9830558 Z M169.141376,2.78913567 L164.884274,2.78913567 L164.884274,8.35406188 L169.141376,8.35406188 C170.21789,8.35406188 171.009694,8.0738166 171.516812,7.51331763 C172.032827,6.99730271 172.290831,6.34784539 172.290831,5.5649262 C172.290831,4.78200701 172.032827,4.11920468 171.516812,3.57649933 C171.009694,3.06938122 170.21789,2.80692929 169.141376,2.78913567 Z M186.36569,19.6173658 L189.141481,19.6173658 L189.141481,11.6102777 L195,0.160141761 L191.877236,0.160141761 L187.753585,8.79445172 L183.629935,0.160141761 L180.507171,0.160141761 L186.36569,11.6102777 L186.36569,19.6173658 Z" id="POWERED-BY" fill="#FFFFFF"></path>
            </g>
        </g>
    </g>
</svg>